<mxfile host="app.diagrams.net" agent="Mozilla/5.0 (Windows NT 10.0; Win64; x64) AppleWebKit/537.36 (KHTML, like Gecko) Chrome/139.0.0.0 Safari/537.36" version="28.2.0">
  <diagram name="ページ1" id="PTVSCX82sq4VMGeBtGpY">
    <mxGraphModel dx="2253" dy="777" grid="1" gridSize="10" guides="1" tooltips="1" connect="1" arrows="1" fold="1" page="1" pageScale="1" pageWidth="827" pageHeight="1169" math="0" shadow="0">
      <root>
        <mxCell id="0" />
        <mxCell id="1" parent="0" />
        <mxCell id="StzFQUktVeoVCFrK81Gv-1" value="乗り物" style="rounded=0;whiteSpace=wrap;html=1;" vertex="1" parent="1">
          <mxGeometry x="-60" y="40" width="120" height="60" as="geometry" />
        </mxCell>
        <mxCell id="StzFQUktVeoVCFrK81Gv-2" value="船" style="rounded=0;whiteSpace=wrap;html=1;" vertex="1" parent="1">
          <mxGeometry x="-60" y="240" width="120" height="60" as="geometry" />
        </mxCell>
        <mxCell id="StzFQUktVeoVCFrK81Gv-3" value="飛行機" style="rounded=0;whiteSpace=wrap;html=1;" vertex="1" parent="1">
          <mxGeometry x="130" y="240" width="120" height="60" as="geometry" />
        </mxCell>
        <mxCell id="StzFQUktVeoVCFrK81Gv-4" value="車" style="rounded=0;whiteSpace=wrap;html=1;" vertex="1" parent="1">
          <mxGeometry x="-250" y="240" width="120" height="60" as="geometry" />
        </mxCell>
        <mxCell id="StzFQUktVeoVCFrK81Gv-7" value="" style="endArrow=block;endFill=0;endSize=12;html=1;rounded=0;exitX=0.5;exitY=0;exitDx=0;exitDy=0;entryX=0.167;entryY=1;entryDx=0;entryDy=0;entryPerimeter=0;" edge="1" parent="1" source="StzFQUktVeoVCFrK81Gv-4" target="StzFQUktVeoVCFrK81Gv-1">
          <mxGeometry width="160" relative="1" as="geometry">
            <mxPoint x="-40.000000000000036" y="311.98" as="sourcePoint" />
            <mxPoint x="86.96000000000001" y="170" as="targetPoint" />
          </mxGeometry>
        </mxCell>
        <mxCell id="StzFQUktVeoVCFrK81Gv-8" value="" style="endArrow=block;endFill=0;endSize=12;html=1;rounded=0;exitX=0.5;exitY=0;exitDx=0;exitDy=0;" edge="1" parent="1" source="StzFQUktVeoVCFrK81Gv-2" target="StzFQUktVeoVCFrK81Gv-1">
          <mxGeometry width="160" relative="1" as="geometry">
            <mxPoint x="180" y="320" as="sourcePoint" />
            <mxPoint x="179.5" y="150" as="targetPoint" />
          </mxGeometry>
        </mxCell>
        <mxCell id="StzFQUktVeoVCFrK81Gv-10" value="" style="endArrow=block;endFill=0;endSize=12;html=1;rounded=0;entryX=0.858;entryY=0.967;entryDx=0;entryDy=0;entryPerimeter=0;exitX=0.592;exitY=0;exitDx=0;exitDy=0;exitPerimeter=0;" edge="1" parent="1" source="StzFQUktVeoVCFrK81Gv-3" target="StzFQUktVeoVCFrK81Gv-1">
          <mxGeometry width="160" relative="1" as="geometry">
            <mxPoint x="380" y="340" as="sourcePoint" />
            <mxPoint x="540" y="150" as="targetPoint" />
          </mxGeometry>
        </mxCell>
        <mxCell id="StzFQUktVeoVCFrK81Gv-13" value="車" style="rounded=0;whiteSpace=wrap;html=1;" vertex="1" parent="1">
          <mxGeometry x="640" y="40" width="120" height="60" as="geometry" />
        </mxCell>
        <mxCell id="StzFQUktVeoVCFrK81Gv-14" value="エンジン" style="rounded=0;whiteSpace=wrap;html=1;" vertex="1" parent="1">
          <mxGeometry x="490" y="200" width="120" height="60" as="geometry" />
        </mxCell>
        <mxCell id="StzFQUktVeoVCFrK81Gv-15" value="ハンドル" style="rounded=0;whiteSpace=wrap;html=1;" vertex="1" parent="1">
          <mxGeometry x="707" y="360" width="120" height="60" as="geometry" />
        </mxCell>
        <mxCell id="StzFQUktVeoVCFrK81Gv-16" value="ボディ" style="rounded=0;whiteSpace=wrap;html=1;" vertex="1" parent="1">
          <mxGeometry x="840" y="200" width="120" height="60" as="geometry" />
        </mxCell>
        <mxCell id="StzFQUktVeoVCFrK81Gv-17" value="ライト" style="rounded=0;whiteSpace=wrap;html=1;" vertex="1" parent="1">
          <mxGeometry x="960" y="360" width="120" height="60" as="geometry" />
        </mxCell>
        <mxCell id="StzFQUktVeoVCFrK81Gv-24" value="" style="endArrow=diamondThin;endFill=0;endSize=24;html=1;rounded=0;exitX=0.5;exitY=0;exitDx=0;exitDy=0;entryX=0.308;entryY=1;entryDx=0;entryDy=0;entryPerimeter=0;" edge="1" parent="1" source="StzFQUktVeoVCFrK81Gv-14" target="StzFQUktVeoVCFrK81Gv-13">
          <mxGeometry width="160" relative="1" as="geometry">
            <mxPoint x="501" y="330" as="sourcePoint" />
            <mxPoint x="430" y="533" as="targetPoint" />
          </mxGeometry>
        </mxCell>
        <mxCell id="StzFQUktVeoVCFrK81Gv-25" value="" style="endArrow=diamondThin;endFill=0;endSize=24;html=1;rounded=0;exitX=0.25;exitY=0;exitDx=0;exitDy=0;entryX=0.75;entryY=1;entryDx=0;entryDy=0;" edge="1" parent="1" source="StzFQUktVeoVCFrK81Gv-16" target="StzFQUktVeoVCFrK81Gv-13">
          <mxGeometry width="160" relative="1" as="geometry">
            <mxPoint x="710" y="230" as="sourcePoint" />
            <mxPoint x="837" y="130" as="targetPoint" />
          </mxGeometry>
        </mxCell>
        <mxCell id="StzFQUktVeoVCFrK81Gv-26" value="" style="endArrow=diamondThin;endFill=0;endSize=24;html=1;rounded=0;exitX=0.442;exitY=0;exitDx=0;exitDy=0;entryX=0.375;entryY=1.017;entryDx=0;entryDy=0;entryPerimeter=0;exitPerimeter=0;" edge="1" parent="1" source="StzFQUktVeoVCFrK81Gv-15" target="StzFQUktVeoVCFrK81Gv-16">
          <mxGeometry width="160" relative="1" as="geometry">
            <mxPoint x="790" y="380" as="sourcePoint" />
            <mxPoint x="917" y="280" as="targetPoint" />
          </mxGeometry>
        </mxCell>
        <mxCell id="StzFQUktVeoVCFrK81Gv-27" value="" style="endArrow=diamondThin;endFill=0;endSize=24;html=1;rounded=0;exitX=0.5;exitY=0;exitDx=0;exitDy=0;entryX=0.65;entryY=1;entryDx=0;entryDy=0;entryPerimeter=0;" edge="1" parent="1" source="StzFQUktVeoVCFrK81Gv-17" target="StzFQUktVeoVCFrK81Gv-16">
          <mxGeometry width="160" relative="1" as="geometry">
            <mxPoint x="950" y="430" as="sourcePoint" />
            <mxPoint x="1077" y="330" as="targetPoint" />
          </mxGeometry>
        </mxCell>
        <mxCell id="StzFQUktVeoVCFrK81Gv-28" value="図書カード" style="html=1;whiteSpace=wrap;" vertex="1" parent="1">
          <mxGeometry x="360" y="520" width="110" height="50" as="geometry" />
        </mxCell>
      </root>
    </mxGraphModel>
  </diagram>
</mxfile>
